<?xml version="1.0" encoding="UTF-8" standalone="no"?><!DOCTYPE svg PUBLIC "-//W3C//DTD SVG 1.1//EN" "http://www.w3.org/Graphics/SVG/1.1/DTD/svg11.dtd"><svg width="100%" height="100%" viewBox="0 0 703 717" version="1.1" xmlns="http://www.w3.org/2000/svg" xmlns:xlink="http://www.w3.org/1999/xlink" xml:space="preserve" xmlns:serif="http://www.serif.com/" style="fill-rule:evenodd;clip-rule:evenodd;stroke-linejoin:round;stroke-miterlimit:2;"><rect id="white-neo-letter" serif:id="white neo letter" x="-0" y="-0" width="702.546" height="716.216" style="fill:none;"/><clipPath id="_clip1"><rect x="-0" y="-0" width="702.546" height="716.216"/></clipPath><g clip-path="url(#_clip1)"><g><path d="M458.145,605.605c-2.199,15.43 -0.207,30.762 10.031,43.113c28.123,33.975 84.54,13.145 84.54,-30.591c0,-2.211 46.681,-379.859 153.676,-567.534c-189.984,295.794 -240.794,517.53 -243.922,532.911c-1.478,7.306 -3.262,14.685 -4.325,22.101" style="fill:#fff;fill-rule:nonzero;"/><path d="M433.689,597.408c1.062,-7.427 2.846,-14.794 4.324,-22.112c1.088,-5.314 7.892,-35.331 24.153,-84.529l-287.169,-352.163c-11.729,-13.927 -21.991,-19.058 -35.918,-19.058c-29.32,0 -52.044,21.257 -57.896,55.709l-85.029,483.763l88.682,0l69.649,-392.87l278.556,345.493c-0.256,-4.679 -0.037,-9.444 0.648,-14.233" style="fill:#fff;fill-rule:nonzero;"/></g></g></svg>